<svg width="48" height="48" viewBox="0 0 48 48" fill="none" xmlns="http://www.w3.org/2000/svg">
<path d="M19.4556 26.049C19.6983 25.076 19.8395 24.2856 20.1026 23.5155C22.7319 15.7322 26.9587 8.80024 31.7722 2.2128C32.3382 1.44259 33.0463 0.712908 33.8351 0.226452C34.2598 -0.0370612 35.1092 0.00345949 35.5946 0.266973C35.9586 0.469679 36.2212 1.26017 36.1407 1.70606C35.9989 2.55736 35.6956 3.42894 35.2708 4.19915C32.4799 9.2867 29.6685 14.3539 26.8169 19.4011C25.7452 21.2861 24.6128 23.1507 23.5003 25.0152C23.1362 25.6437 22.7319 26.2518 22.3072 26.8195C21.8417 27.468 21.134 27.8532 20.4263 27.4276C19.9609 27.1435 19.4556 26.9411 19.4556 26.049Z" fill="url(#paint0_linear_46_19990)"/>
<path d="M44.5742 48C43.6034 47.838 42.4705 47.7164 41.3784 47.4732C37.0706 46.5003 32.7629 45.5273 28.4755 44.5141C27.545 44.2908 26.6349 43.906 25.8059 43.4599C24.6934 42.8723 24.3094 42.0409 24.4914 41.1288C24.6735 40.2167 25.4015 39.6495 26.6757 39.6291C27.545 39.6086 28.4755 39.6291 29.3045 39.8319C34.7452 41.21 40.1854 42.629 45.6056 44.068C46.2124 44.23 46.839 44.5141 47.3045 44.9193C48.4772 45.9126 48.1131 47.4732 46.6167 47.8584C46.0304 48 45.363 47.9392 44.5742 48Z" fill="url(#paint1_linear_46_19990)"/>
<path d="M0.485017 4.34092C0.565931 3.38825 0.76814 2.43562 1.01083 1.50323C1.23333 0.672219 1.79958 0.0844327 2.70968 0.00334042C3.47823 -0.0574666 4.30741 0.712739 4.42876 1.72622C4.59054 3.08421 4.73213 4.46254 4.67145 5.82053C4.48943 9.91489 4.2265 14.0295 3.94338 18.1238C3.84222 19.4819 3.66021 20.8399 3.43775 22.1981C3.35684 22.6641 3.19506 23.1506 2.93213 23.5154C2.22429 24.5491 0.929969 24.4679 0.424344 23.3534C0.14122 22.7249 0.0198728 21.9549 0.0198728 21.2656C-0.0812812 18.9954 0.222085 7.70555 0.485017 4.34092Z" fill="url(#paint2_linear_46_19990)"/>
<defs>
<linearGradient id="paint0_linear_46_19990" x1="1.25423e-05" y1="39.2348" x2="69.2347" y2="-3.82717" gradientUnits="userSpaceOnUse">
<stop stop-color="#FFD600"/>
<stop offset="1" stop-color="#CCCBCB"/>
</linearGradient>
<linearGradient id="paint1_linear_46_19990" x1="1.25423e-05" y1="39.2348" x2="69.2347" y2="-3.82717" gradientUnits="userSpaceOnUse">
<stop stop-color="#FFD600"/>
<stop offset="1" stop-color="#CCCBCB"/>
</linearGradient>
<linearGradient id="paint2_linear_46_19990" x1="1.25423e-05" y1="39.2348" x2="69.2347" y2="-3.82717" gradientUnits="userSpaceOnUse">
<stop stop-color="#FFD600"/>
<stop offset="1" stop-color="#CCCBCB"/>
</linearGradient>
</defs>
</svg>
