<svg width="114" height="70" viewBox="0 0 114 70" fill="none" xmlns="http://www.w3.org/2000/svg">
<path d="M105.532 41.6484C101.996 40.6669 99.0234 39.7605 96.012 39.0281C90.9112 37.765 85.8173 36.7466 80.4966 37.7306C75.0995 38.7345 71.455 41.835 70.1193 47.0808C69.3042 50.303 69.3586 53.7399 69.1444 57.0813C69.0673 58.3882 69.3548 59.7385 69.5235 61.6946C67.3942 59.722 65.7457 58.1469 64.0341 56.6424C59.8665 52.9476 55.8448 49.0789 51.4554 45.6885C45.4637 41.0115 39.6508 41.9853 35.1976 48.2241C33.4531 50.6718 32.2855 53.5737 30.8804 56.2902C30.4628 57.1099 30.1668 57.98 29.7436 58.9927C27.3272 54.273 25.097 49.7521 22.7076 45.3541C17.1239 35.095 8.49695 37.723 3.51434 44.1254C2.18141 45.8375 1.23966 47.9145 0.303968 49.9081C-0.277197 51.2623 -0.0849931 52.7743 1.4057 53.4043C2.74931 53.9902 3.76669 53.0711 4.5019 51.8966C5.24361 50.747 5.91482 49.5336 6.76559 48.4935C7.76244 47.2789 8.78475 46.0573 9.99971 45.0605C13.4219 42.2637 16.2581 42.5204 18.8545 46.1254C20.6925 48.6661 22.1678 51.4909 23.6557 54.2584C25.0405 56.8329 26.3107 59.4914 27.581 62.1506C28.2514 63.5117 28.9728 64.8601 30.6525 64.9486C32.5812 65.0557 33.3343 63.52 34.0363 62.1073C34.9411 60.3131 35.5704 58.3984 36.5712 56.6622C37.8065 54.4552 39.0986 52.261 40.6409 50.303C42.7424 47.654 44.6562 47.2719 47.5437 49.0215C50.3036 50.6954 53.0325 52.568 55.4942 54.6743C60.7447 59.2131 65.8171 63.9073 70.8965 68.6269C72.102 69.7416 73.2804 70.4243 74.8094 69.7027C76.2684 69.0263 76.4339 67.6416 76.2804 66.1747C76.0005 63.5627 75.6049 60.9258 75.4583 58.3067C75.3396 56.0093 75.258 53.6476 75.5537 51.3801C76.3303 45.3197 79.2557 42.7057 85.2746 42.2268C89.7998 41.8573 94.253 42.3834 98.6316 43.4764C101.79 44.2535 104.891 45.2362 107.999 46.1356C109.641 46.6171 111.342 47.1114 112.605 45.4445C113.779 43.8554 113.095 42.2236 112.347 40.6631C112.018 40.0083 111.594 39.4051 111.195 38.7956C110.372 37.5829 109.613 36.2995 108.675 35.1708C101.759 26.7327 102.9 18.0316 107.891 9.29929C108.816 7.69167 110.246 6.36558 111.491 4.95032C112.101 4.24587 112.942 3.70129 113.455 2.93888C113.836 2.40322 114.163 1.44274 113.912 0.986694C113.648 0.479057 112.701 0.174606 112.101 0.0554962C110.791 -0.182716 109.248 0.377785 108.243 1.12936C106.257 2.62552 104.292 4.3083 102.839 6.29743C99.6034 10.6897 97.8772 15.7896 97.047 21.2067C96.3406 25.8251 97.6434 30.0091 100.056 33.8536C101.663 36.3434 103.449 38.6778 105.532 41.6484Z" fill="url(#paint0_linear_65_231)"/>
<defs>
<linearGradient id="paint0_linear_65_231" x1="2.97879e-05" y1="12.7826" x2="112.557" y2="126.795" gradientUnits="userSpaceOnUse">
<stop stop-color="#FFD600"/>
<stop offset="1" stop-color="#CCCBCB"/>
</linearGradient>
</defs>
</svg>
