<svg width="68" height="68" viewBox="0 0 68 68" fill="none" xmlns="http://www.w3.org/2000/svg">
<path d="M60.5767 32.4417L47.8267 25.075C47.175 24.7067 46.3533 24.7067 45.7017 25.075L32.9517 32.4417C32.9517 32.4417 32.9517 32.47 32.9233 32.47L21.25 39.2133L10.625 33.065V20.7967L21.25 14.6483L31.875 20.7967V24.0267C31.875 25.1884 32.8383 26.1517 34 26.1517C35.1617 26.1517 36.125 25.1884 36.125 24.0267V19.55C36.125 18.785 35.7283 18.0767 35.0483 17.7083L22.2983 10.3417C21.6467 9.97335 20.825 9.97335 20.1733 10.3417L7.42332 17.7083C6.77165 18.0767 6.34668 18.785 6.34668 19.55V34.2833C6.34668 35.0483 6.74332 35.7567 7.42332 36.125L20.1733 43.4917C20.5133 43.69 20.8817 43.775 21.25 43.775C21.6183 43.775 21.9867 43.69 22.3267 43.4917L35.0767 36.125C35.0767 36.125 35.0767 36.0967 35.105 36.0967L46.7783 29.3533L57.4033 35.5017V47.77L46.7783 53.9183L36.1533 47.77V44.3133C36.1533 43.1517 35.19 42.1883 34.0283 42.1883C32.8666 42.1883 31.9033 43.1517 31.9033 44.3133V48.9883C31.9033 49.7533 32.3 50.4617 32.98 50.83L45.73 58.1967C46.07 58.395 46.4383 58.48 46.8067 58.48C47.175 58.48 47.5433 58.395 47.8833 58.1967L60.6333 50.83C61.285 50.4617 61.71 49.7533 61.71 48.9883V34.255C61.625 33.5183 61.2283 32.81 60.5767 32.4417Z" fill="url(#paint0_linear_102_493)"/>
<path d="M12.75 23.6583V30.2033C12.75 31.2233 13.2883 32.1583 14.1667 32.6683L19.8333 35.9267C20.7117 36.4367 21.7883 36.4367 22.6667 35.9267L28.3333 32.6683C29.2117 32.1583 29.75 31.2233 29.75 30.2033V23.6583C29.75 22.6383 29.2117 21.7033 28.3333 21.1933L22.6667 17.935C21.7883 17.425 20.7117 17.425 19.8333 17.935L14.1667 21.1933C13.2883 21.7033 12.75 22.6383 12.75 23.6583Z" fill="url(#paint1_linear_102_493)"/>
<path d="M38.25 38.3917V44.9367C38.25 45.9567 38.7883 46.8917 39.6667 47.4017L45.3333 50.6601C46.2117 51.1701 47.2883 51.1701 48.1667 50.6601L53.8333 47.4017C54.7117 46.8917 55.25 45.9567 55.25 44.9367V38.3917C55.25 37.3717 54.7117 36.4367 53.8333 35.9267L48.1667 32.6684C47.2883 32.1584 46.2117 32.1584 45.3333 32.6684L39.6667 35.9267C38.7883 36.4367 38.25 37.3717 38.25 38.3917Z" fill="url(#paint2_linear_102_493)"/>
<defs>
<linearGradient id="paint0_linear_102_493" x1="61.71" y1="58.48" x2="-1.37075" y2="44.2312" gradientUnits="userSpaceOnUse">
<stop stop-color="#2563EB"/>
<stop offset="0.5" stop-color="#2563EB" stop-opacity="0.65"/>
<stop offset="1" stop-color="#2050B7"/>
</linearGradient>
<linearGradient id="paint1_linear_102_493" x1="29.75" y1="36.3092" x2="10.0242" y2="32.7776" gradientUnits="userSpaceOnUse">
<stop stop-color="#2563EB"/>
<stop offset="0.5" stop-color="#2563EB" stop-opacity="0.65"/>
<stop offset="1" stop-color="#2050B7"/>
</linearGradient>
<linearGradient id="paint2_linear_102_493" x1="55.25" y1="51.0426" x2="35.5242" y2="47.511" gradientUnits="userSpaceOnUse">
<stop stop-color="#2563EB"/>
<stop offset="0.5" stop-color="#2563EB" stop-opacity="0.65"/>
<stop offset="1" stop-color="#2050B7"/>
</linearGradient>
</defs>
</svg>
