<svg width="68" height="68" viewBox="0 0 68 68" fill="none" xmlns="http://www.w3.org/2000/svg">
<path d="M37.2584 43.5483C36.6351 42.6416 35.5301 42.1316 34.2551 42.1316H27.6534C27.2284 42.1316 26.8034 41.9616 26.5484 41.6216C26.2651 41.2816 26.1517 40.8566 26.2084 40.375L27.0301 35.105C27.3701 33.5466 26.3217 31.7616 24.7634 31.2233C23.2901 30.685 21.5901 31.4216 20.8817 32.47L14.3367 42.2166V40.9983C14.3367 38.6183 13.3167 37.655 10.8234 37.655H9.18008C6.68675 37.6833 5.66675 38.6466 5.66675 41.0266V57.205C5.66675 59.585 6.68675 60.5483 9.18008 60.5483H10.8234C13.2034 60.5483 14.1951 59.6133 14.2801 57.46L19.2384 61.285C19.9467 61.965 21.4484 62.3333 22.5251 62.3333H28.7867C30.9401 62.3333 33.0934 60.7183 33.6034 58.735L37.5701 46.6933C37.9951 45.5316 37.8817 44.4266 37.2584 43.5483Z" fill="url(#paint0_linear_102_508)"/>
<path d="M59.8117 7.39511H58.1684C55.7884 7.39511 54.7967 8.33011 54.6834 10.4834L49.725 6.65844C49.045 5.97844 47.515 5.61011 46.4384 5.61011H40.1767C38.0234 5.61011 35.87 7.22511 35.36 9.20844L31.3934 21.2501C30.9684 22.4118 31.11 23.5168 31.705 24.3951C32.3284 25.3018 33.4334 25.8118 34.7084 25.8118H41.31C41.735 25.8118 42.16 25.9818 42.415 26.3218C42.6984 26.6618 42.8117 27.0868 42.755 27.5684L41.9334 32.8384C41.5934 34.3968 42.6417 36.1818 44.2 36.7201C45.6734 37.2584 47.3734 36.5218 48.0817 35.4734L54.6267 25.7268V26.9451C54.6267 29.3251 55.6467 30.2884 58.14 30.2884H59.7834C62.2767 30.2884 63.2967 29.3251 63.2967 26.9451V10.7101C63.325 8.35844 62.305 7.39511 59.8117 7.39511Z" fill="url(#paint1_linear_102_508)"/>
<defs>
<linearGradient id="paint0_linear_102_508" x1="37.8235" y1="62.3333" x2="0.838855" y2="54.8255" gradientUnits="userSpaceOnUse">
<stop stop-color="#2563EB"/>
<stop offset="0.5" stop-color="#2563EB" stop-opacity="0.65"/>
<stop offset="1" stop-color="#2050B7"/>
</linearGradient>
<linearGradient id="paint1_linear_102_508" x1="63.2973" y1="36.9009" x2="26.3205" y2="29.3965" gradientUnits="userSpaceOnUse">
<stop stop-color="#2563EB"/>
<stop offset="0.5" stop-color="#2563EB" stop-opacity="0.65"/>
<stop offset="1" stop-color="#2050B7"/>
</linearGradient>
</defs>
</svg>
