<svg width="68" height="68" viewBox="0 0 68 68" fill="none" xmlns="http://www.w3.org/2000/svg">
<path d="M33.9999 64.4584C33.2916 64.4584 32.6115 64.0901 32.2149 63.4951L6.60153 23.8284C5.97819 22.8368 6.26153 21.5334 7.22486 20.8817C8.21653 20.2584 9.51989 20.5134 10.1716 21.5051L33.9715 58.3951L57.6865 21.5051C58.3099 20.5134 59.6415 20.23 60.6332 20.8534C61.6249 21.4767 61.9082 22.8084 61.2849 23.8001L35.7849 63.4667C35.3882 64.0901 34.7366 64.4584 33.9999 64.4584Z" fill="url(#paint0_linear_104_546)"/>
<path d="M11.1067 11.3333H16.2633C16.7449 11.3333 17.17 11.5599 17.4533 11.9566L32.8667 35.0482C33.4333 35.8982 34.6516 35.8982 35.2183 35.0482L50.6316 11.9566C50.8866 11.5599 51.34 11.3333 51.8217 11.3333H56.9783C58.1116 11.3333 58.7633 12.5799 58.1683 13.5149L35.275 49.1583C34.7083 50.0366 33.4616 50.0366 32.8949 49.1583L10.0016 13.5149C9.29331 12.5799 9.97335 11.3333 11.1067 11.3333Z" fill="url(#paint1_linear_104_546)"/>
<path d="M26.69 9.91675C25.415 9.46341 24.2817 10.9084 25.0467 12.0417L32.8383 23.7434C33.405 24.5934 34.6234 24.5934 35.19 23.7434L42.9817 12.0701C43.7467 10.9368 42.6133 9.49178 41.3383 9.94511L37.4283 11.3334V7.08341C37.4283 6.29008 36.805 5.66675 36.0116 5.66675H32.045C31.2517 5.66675 30.6283 6.29008 30.6283 7.08341V11.3334L26.69 9.91675Z" fill="url(#paint2_linear_104_546)"/>
<defs>
<linearGradient id="paint0_linear_104_546" x1="61.6149" y1="64.4584" x2="-0.797698" y2="48.9284" gradientUnits="userSpaceOnUse">
<stop stop-color="#2563EB"/>
<stop offset="0.5" stop-color="#2563EB" stop-opacity="0.65"/>
<stop offset="1" stop-color="#2050B7"/>
</linearGradient>
<linearGradient id="paint1_linear_104_546" x1="58.393" y1="49.817" x2="3.52256" y2="36.1066" gradientUnits="userSpaceOnUse">
<stop stop-color="#2563EB"/>
<stop offset="0.5" stop-color="#2563EB" stop-opacity="0.65"/>
<stop offset="1" stop-color="#2050B7"/>
</linearGradient>
<linearGradient id="paint2_linear_104_546" x1="43.2298" y1="24.3809" x2="21.9628" y2="20.2436" gradientUnits="userSpaceOnUse">
<stop stop-color="#2563EB"/>
<stop offset="0.5" stop-color="#2563EB" stop-opacity="0.65"/>
<stop offset="1" stop-color="#2050B7"/>
</linearGradient>
</defs>
</svg>
